<?xml version="1.0" encoding="UTF-8"?>
<svg width="22px" height="22px" viewBox="0 0 22 22" version="1.1" xmlns="http://www.w3.org/2000/svg" xmlns:xlink="http://www.w3.org/1999/xlink">
    <title>知产输出管理@1x</title>
    <g id="页面-1" stroke="none" stroke-width="1" fill="none" fill-rule="evenodd">
        <g id="知产管理系统_原件控件" transform="translate(-65.000000, -1178.000000)">
            <g id="left-menu" transform="translate(44.000000, 854.000000)">
                <g id="编组-5" transform="translate(0.000000, 87.000000)">
                    <g id="知产输出管理" transform="translate(0.000000, 224.000000)">
                        <g transform="translate(21.000000, 13.000000)">
                            <rect id="矩形" fill="#D8D8D8" opacity="0" x="0" y="0" width="22" height="22"></rect>
                            <path d="M12.1186465,19.3960798 C12.3024975,19.6188652 12.2709362,19.9484691 12.0482021,20.1322936 C11.6265825,20.4802803 11.0929139,20.6718979 10.545466,20.6718979 C9.99919601,20.6718979 9.46639071,20.4809867 9.04518905,20.1343348 C8.82219269,19.9507976 8.7901868,19.6212209 8.9737249,19.3982245 C9.15726203,19.1752028 9.48686612,19.1431715 9.70986052,19.3267604 C9.94770845,19.5224833 10.2366502,19.6259521 10.545467,19.6259521 C10.8549361,19.6259521 11.1443485,19.5220897 11.3824328,19.3256354 C11.6051928,19.1418367 11.9347967,19.1732934 12.1186465,19.3960798 Z M13.3177643,17.3320796 C13.3895685,17.6118435 13.2210144,17.8968634 12.9412756,17.9686936 L8.51771581,19.1044078 C8.47509681,19.1153735 8.43126766,19.1209345 8.38726038,19.1209599 C8.15419777,19.1209599 7.94171315,18.9640668 7.88110175,18.7279191 C7.8092714,18.4481551 7.9778255,18.1631352 8.25759047,18.091305 L12.6811503,16.9555908 C12.9608616,16.8839175 13.2459088,17.0522884 13.3177643,17.3320796 Z M10.5932866,4.77547699 C13.5173525,4.77547699 15.8962615,7.15436648 15.8962615,10.0784129 C15.8962615,11.8123543 15.057491,13.4217175 13.6440518,14.4164648 C13.5704147,14.612948 13.4309058,15.0461224 13.3548846,15.6743366 L13.332073,15.8909078 C13.3122493,16.1114276 13.1557083,16.2955665 12.9412561,16.3506271 L8.51769627,17.4863667 C8.47508294,17.4973127 8.43126375,17.5028926 8.38726702,17.5028926 C8.15419777,17.5028926 7.94171315,17.3459985 7.88110175,17.1098508 C7.8092714,16.8300868 7.9778255,16.5450669 8.25759047,16.4732368 L12.3321655,15.4271086 C12.4581706,14.5055375 12.7009823,13.9495119 12.7431094,13.8580414 L12.7489492,13.8455872 C12.7899874,13.7603714 12.853374,13.6878846 12.9323557,13.6358486 C14.1333102,12.8443829 14.8503052,11.514518 14.8503052,10.0784031 C14.8503052,7.73109567 12.9406194,5.82140595 10.5932885,5.82140595 C8.24598111,5.82140595 6.33631092,7.73109176 6.33631092,10.0784031 C6.33631092,11.6665924 7.21077288,13.112059 8.61846201,13.8507122 C8.87422208,13.9849069 8.97274953,14.3010447 8.83855407,14.5568028 C8.70438555,14.8125355 8.38824885,14.9111685 8.1324634,14.7768949 C6.37940667,13.857013 5.29037025,12.0566769 5.29037025,10.0784129 C5.29037025,7.15436648 7.66925974,4.77547699 10.5932866,4.77547699 Z M5.96496278,14.7746325 C6.16918372,14.9788788 6.16920911,15.3100003 5.96496278,15.5142212 L4.85058649,16.6285975 C4.7722089,16.7071821 4.67135903,16.7581807 4.5631211,16.775345 L4.48079113,16.7817767 C4.34205796,16.7819657 4.20897246,16.7268472 4.11099773,16.6286237 C3.9067514,16.4243773 3.9067514,16.0932558 4.11099773,15.8890349 L5.22537403,14.7746586 C5.42962036,14.5704123 5.76074184,14.5703849 5.96496278,14.7746325 Z M15.9127654,14.7746332 L17.0271417,15.8890095 C17.2086714,16.0705618 17.2288414,16.3523812 17.0876516,16.5561972 L17.0271417,16.6286236 C16.9487646,16.7072064 16.8479132,16.7581994 16.7396756,16.7753535 L16.6573483,16.7817767 C16.5186096,16.7819554 16.3855198,16.726839 16.2875275,16.6286237 L15.1731512,15.5142474 C14.9689303,15.310001 14.9689303,14.9788542 15.1731512,14.7746332 C15.3773976,14.5703869 15.7085444,14.5703869 15.9127654,14.7746332 Z M3.53491115,9.64754131 C3.82374938,9.64754131 4.05788441,9.88167635 4.05788441,10.1705146 C4.05788441,10.4593528 3.82374938,10.6934878 3.53491115,10.6934878 L1.9589601,10.6934878 C1.67012187,10.6934878 1.43598683,10.4593528 1.43598683,10.1705146 C1.43598683,9.88167635 1.67012187,9.64754131 1.9589601,9.64754131 L3.53491115,9.64754131 Z M19.1791872,9.64754131 C19.4680254,9.64754131 19.7021604,9.88167635 19.7021604,10.1705146 C19.7021604,10.4593528 19.4680254,10.6934878 19.1791872,10.6934878 L17.6032361,10.6934878 C17.3143979,10.6934878 17.0802628,10.4593528 17.0802628,10.1705146 C17.0802628,9.88167635 17.3143979,9.64754131 17.6032361,9.64754131 L19.1791872,9.64754131 Z M17.0271425,3.71245159 C17.2313634,3.91669793 17.2313634,4.2478194 17.0271163,4.45204035 L15.91274,5.56641664 C15.8343727,5.64500392 15.7335292,5.69600392 15.6252964,5.71316626 L15.542972,5.7195958 C15.4042273,5.71977917 15.2711319,5.66465133 15.1731513,5.56641664 C14.9689049,5.36217031 14.9689303,5.03104883 15.1731774,4.82682789 L16.2875537,3.71245159 C16.4918001,3.50823065 16.8229215,3.50820526 17.0271425,3.71245159 Z M4.8505865,3.71245159 L5.96496279,4.82682789 C6.14651509,5.00838019 6.16668756,5.29017951 6.02548022,5.49399109 L5.9649628,5.56641664 C5.88658521,5.64500126 5.78573534,5.69599985 5.67749741,5.71316413 L5.59516744,5.71959577 C5.45643115,5.71977509 5.32334486,5.66464742 5.22537404,5.56641664 L4.11099775,4.45204035 C3.90675141,4.24779401 3.90675141,3.91667253 4.11099775,3.71245159 C4.31524408,3.50823065 4.64636556,3.50820526 4.8505865,3.71245159 Z M10.56906,1.03741411 C10.8578982,1.03741411 11.0920332,1.27154914 11.0920332,1.56038737 L11.0920332,3.13636577 C11.0920332,3.42520399 10.8578982,3.65933903 10.56906,3.65933903 C10.2802217,3.65933903 10.0460867,3.42520399 10.0460867,3.13636577 L10.0460867,1.56038737 C10.0460867,1.27154914 10.2802217,1.03741411 10.56906,1.03741411 Z" id="形状结合" fill="#FFFFFF" fill-rule="nonzero"></path>
                        </g>
                    </g>
                </g>
            </g>
        </g>
    </g>
</svg>