<?xml version="1.0" encoding="UTF-8"?>
<svg width="22px" height="22px" viewBox="0 0 22 22" version="1.1" xmlns="http://www.w3.org/2000/svg" xmlns:xlink="http://www.w3.org/1999/xlink">
    <title>牌照信息管理@1x</title>
    <g id="页面-1" stroke="none" stroke-width="1"  fill-rule="evenodd">
        <g id="知产管理系统_原件控件" transform="translate(-65.000000, -954.000000)">
            <g id="left-menu" transform="translate(44.000000, 854.000000)">
                <g id="编组-5" transform="translate(0.000000, 87.000000)">
                    <g id="牌照信息管理" transform="translate(21.000000, 13.000000)">
                        <rect id="矩形"  opacity="0" x="0" y="0" width="22" height="22"></rect>
                        <path d="M11.0543693,1.6 C11.2935841,1.59999999 11.532799,1.68506583 11.7232592,1.85519748 L11.7232592,1.85519748 L20.3278705,10.1339312 C20.3727828,10.1720637 20.3969704,10.2251041 20.399729,10.2792365 C20.4020238,10.3242669 20.3894898,10.370053 20.3617111,10.4086366 C20.3041268,10.4585204 20.2558297,10.4928278 20.1990895,10.4905289 C20.1403535,10.4881493 20.083054,10.4606468 20.0338588,10.4161368 L20.0338588,10.4161368 L19.0313102,9.50906731 L19.0313116,19.3962575 C19.0312252,19.6746647 18.9183002,19.9266798 18.7357949,20.1090714 C18.5532894,20.2914632 18.3012036,20.4042313 18.022609,20.4041445 L18.022609,20.4041445 L13.8315383,20.4041445 L13.831539,16.1602512 C13.831328,15.6818766 13.6372371,15.2488757 13.3236054,14.9355213 C13.0099737,14.622167 12.576801,14.4284592 12.0986919,14.4286709 L12.0986919,14.4286709 L9.8937695,14.4286723 C9.41539504,14.4292897 8.98255896,14.6237483 8.66947094,14.9376461 C8.35638297,15.2515439 8.16304299,15.6848809 8.16366051,16.1624802 L8.16366051,16.1624802 L8.16366055,20.4041445 L4.08241435,20.4041449 C3.80400757,20.4037979 3.55209794,20.2906367 3.36987658,20.1079608 C3.18765517,19.9252848 3.07512189,19.673094 3.07546895,19.3939402 L3.07546895,19.3939402 L3.07546895,9.76959686 C2.13944028,10.024473 2.01150043,10.4999207 1.79355358,10.4886373 C1.74199289,10.4859679 1.69143913,10.4638503 1.65381376,10.4229012 C1.61568061,10.3813996 1.59797934,10.3283706 1.60018683,10.2761837 L1.60018683,10.2761837 L10.384178,1.85636203 C10.5748493,1.68545402 10.8146093,1.60000001 11.0543693,1.6 Z" id="路径" stroke="#FFFFFF" stroke-width="1.2" fill-rule="nonzero"></path>
                    </g>
                </g>
            </g>
        </g>
    </g>
</svg>