<?xml version="1.0" encoding="UTF-8"?>
<svg width="22px" height="22px" viewBox="0 0 22 22" version="1.1" xmlns="http://www.w3.org/2000/svg" xmlns:xlink="http://www.w3.org/1999/xlink">
    <title>项目知产管理@1x</title>
    <g id="页面-1" stroke="none" stroke-width="1" fill="none" fill-rule="evenodd">
        <g id="知产管理系统_原件控件" transform="translate(-65.000000, -1130.000000)">
            <g id="left-menu" transform="translate(44.000000, 854.000000)">
                <g id="编组-5" transform="translate(0.000000, 87.000000)">
                    <g id="项目知产管理" transform="translate(0.000000, 176.000000)">
                        <g transform="translate(21.000000, 13.000000)">
                            <rect id="矩形" fill="#D8D8D8" opacity="0" x="0" y="0" width="22" height="22"></rect>
                            <path d="M9.99091945,1.36007854 C10.9909206,1.36007854 11.9709218,1.86007854 12.5709224,2.68008008 L13.030923,3.3000808 C13.1509231,3.48008101 13.3509234,3.58008113 13.5709236,3.58008113 L16.9709276,3.58008113 C17.8109285,3.58008113 18.6109295,3.92008152 19.2109302,4.52008222 C19.8309309,5.14008294 20.1709313,5.98008392 20.1709313,6.88008497 L20.1709313,17.3000971 C20.1509313,19.1200992 18.7109296,20.5801009 16.9309275,20.5801009 L5.53091426,20.5801009 C3.75091219,20.5801009 2.31091051,19.1000992 2.31091051,17.2800971 L2.31091051,4.66008238 C2.31091051,2.84008027 3.75091219,1.36007854 5.53091426,1.36007854 L9.99091945,1.36007854 Z M5.53091426,2.56007994 C4.41091295,2.56007994 3.51091191,3.50008103 3.51091191,4.66008238 L3.51091191,17.3000971 C3.51091191,18.4600984 4.41091295,19.4000995 5.53091426,19.4000995 L16.9509275,19.4000995 C18.0509288,19.4000995 18.9709299,18.4600984 18.9709299,17.3000971 L18.9709299,6.88008497 C18.9709299,6.30008429 18.7509296,5.78008369 18.3509292,5.38008322 C17.9709287,5.00008278 17.4709282,4.80008255 16.9509275,4.80008255 L13.5509236,4.80008255 C12.9509229,4.80008255 12.3909222,4.52008222 12.0509218,4.04008166 L11.5709213,3.40008092 C11.1909208,2.88008031 10.5909201,2.58007996 9.97091942,2.58007996 L5.53091426,2.58007996 L5.53091426,2.56007994 Z M15.2309255,13.4000144 C15.5709259,13.4000144 15.8309262,13.6600147 15.8309262,14.0000151 C15.8309262,14.3400155 15.5709259,14.6000158 15.2309255,14.6000158 L7.21091621,14.6000158 C6.87091582,14.6000158 6.61091551,14.3400155 6.61091551,14.0000151 C6.61091551,13.6600147 6.87091582,13.4000144 7.21091621,13.4000144 L15.2309255,13.4000144 Z M15.2309255,8.74000901 C15.5709259,8.74000901 15.8309262,9.00000931 15.8309262,9.3400097 C15.8309262,9.6800101 15.5709259,9.9400104 15.2309255,9.9400104 L7.21091621,9.9400104 C6.87091582,9.9400104 6.61091551,9.6800101 6.61091551,9.3400097 C6.61091551,9.00000931 6.87091582,8.74000901 7.21091621,8.74000901 L15.2309255,8.74000901 Z" id="形状结合" fill="#FFFFFF" fill-rule="nonzero"></path>
                        </g>
                    </g>
                </g>
            </g>
        </g>
    </g>
</svg>