<?xml version="1.0" encoding="UTF-8"?>
<svg width="22px" height="22px" viewBox="0 0 22 22" version="1.1" xmlns="http://www.w3.org/2000/svg" xmlns:xlink="http://www.w3.org/1999/xlink">
    <title>收发函管理@1x</title>
    <g id="页面-1" stroke="none" stroke-width="1"  fill-rule="evenodd">
        <g id="知产管理系统_原件控件" transform="translate(-65.000000, -1002.000000)">
            <g id="left-menu" transform="translate(44.000000, 854.000000)">
                <g id="编组-5" transform="translate(0.000000, 87.000000)">
                    <g id="基础信息管理" transform="translate(0.000000, 48.000000)">
                        <g id="收发函管理" transform="translate(21.000000, 13.000000)">
                            <rect id="矩形" opacity="0" x="0" y="0" width="22" height="22"></rect>
                            <g id="菜单管理" transform="translate(1.000000, 1.000000)"  fill-rule="nonzero">
                                <path d="M18,0 C19.1045695,0 20,0.8954305 20,2 L20,18 C20,19.1045695 19.1045695,20 18,20 L2,20 C0.8954305,20 0,19.1045695 0,18 L0,2 C0,0.8954305 0.8954305,0 2,0 L18,0 Z M5.797,7.972 L1.5,7.972 L1.5,18 C1.5,18.2454599 1.67687516,18.4496084 1.91012437,18.4919443 L2,18.5 L5.797,18.5 L5.797,7.972 Z M18.5,7.972 L7.297,7.972 L7.297,18.5 L18,18.5 C18.2454599,18.5 18.4496084,18.3231248 18.4919443,18.0898756 L18.5,18 L18.5,7.972 Z M18,1.5 L2,1.5 C1.75454011,1.5 1.55039163,1.67687516 1.50805567,1.91012437 L1.5,2 L1.5,6.472 L18.5,6.472 L18.5,2 C18.5,1.75454011 18.3231248,1.55039163 18.0898756,1.50805567 L18,1.5 Z" id="形状结合"></path>
                            </g>
                        </g>
                    </g>
                </g>
            </g>
        </g>
    </g>
</svg>