<?xml version="1.0" encoding="UTF-8"?>
<svg width="22px" height="22px" viewBox="0 0 22 22" version="1.1" xmlns="http://www.w3.org/2000/svg" xmlns:xlink="http://www.w3.org/1999/xlink">
    <title>知产资料管理@1x</title>
    <g id="页面-1" stroke="none" stroke-width="1"  fill-rule="evenodd">
        <g id="知产管理系统_原件控件" transform="translate(-65.000000, -1226.000000)">
            <g id="left-menu" transform="translate(44.000000, 854.000000)">
                <g id="编组-5" transform="translate(0.000000, 87.000000)">
                    <g id="知产资料管理" transform="translate(0.000000, 272.000000)">
                        <g transform="translate(21.000000, 13.000000)">
                            <rect id="矩形"  opacity="0" x="0" y="0" width="22" height="22"></rect>
                            <path d="M11.0912328,13.2573113 C10.725666,13.2573113 10.3597813,13.1775224 10.0625596,13.0173088 L1.60525145,8.50367156 C1.22824083,8.29704686 1,7.9769375 1,7.62249666 C1,7.2683737 1.21711488,6.96002607 1.58268167,6.75403713 L9.89153792,2.24008201 C10.4742196,1.91997266 11.354123,1.91997266 11.9371225,2.24008201 L20.3944307,6.75403713 C20.7714413,6.96002607 21,7.27981753 21,7.63425838 C21,7.98838133 20.7828851,8.29704686 20.4173183,8.50271791 L12.1081442,13.0176267 C11.8226842,13.1778403 11.4567995,13.2576292 11.0909149,13.2576292 L11.0912328,13.2573113 Z M10.5540085,12.1145178 C10.8397864,12.2629697 11.3538051,12.2629697 11.628457,12.1145178 L19.8797762,7.63457626 L11.4679255,3.15431687 C11.1821476,3.00586496 10.667811,3.00586496 10.393477,3.15431687 L2.14247568,7.63457626 L10.5536906,12.1145178 L10.5540085,12.1145178 Z M11.0912328,16.891681 C10.725666,16.891681 10.3597813,16.8115742 10.0625596,16.6516784 L1.60525145,12.1374054 L1.60525138,12.1374054 C1.35661232,12.0016997 1.2605219,11.6931742 1.3881365,11.4402854 L1.38813653,11.4402854 C1.52384227,11.1916463 1.83236773,11.0955559 2.0852565,11.2231705 L10.5428825,15.7374435 C10.8286604,15.8858954 11.342997,15.8858954 11.617331,15.7374435 L19.9258694,11.2231705 L19.9258693,11.2231705 C20.1728355,11.0867724 20.483613,11.1764058 20.6200111,11.423372 C20.6210147,11.425189 20.6220071,11.4270122 20.6229884,11.4288414 L20.6229885,11.4288414 C20.7593864,11.6758076 20.6697532,11.986585 20.422787,12.1229832 C20.4209699,12.1239867 20.4191468,12.1249792 20.4173176,12.1259605 L12.1081435,16.6402335 C11.8226835,16.8118909 11.4567988,16.891681 11.0909142,16.891681 L11.0912328,16.891681 Z M11.0912328,20.7317217 C10.725666,20.7317217 10.3597813,20.6516149 10.0625596,20.4917191 L1.60525145,15.9774461 L1.60525138,15.9774461 C1.35661232,15.8417403 1.2605219,15.5332149 1.3881365,15.2803261 L1.38813653,15.2803261 C1.52384227,15.031687 1.83236773,14.9355966 2.0852565,15.0632112 L10.5428825,19.5774842 C10.8286604,19.7259361 11.342997,19.7259361 11.617331,19.5774842 L19.9258694,15.0632112 L19.9258693,15.0632112 C20.1728355,14.9268131 20.483613,15.0164465 20.6200111,15.2634127 C20.6210147,15.2652297 20.6220071,15.2670529 20.6229884,15.268882 L20.6229885,15.268882 C20.7593864,15.5158482 20.6697532,15.8266257 20.422787,15.9630238 C20.4209699,15.9640274 20.4191468,15.9650199 20.4173176,15.9660012 L12.1081435,20.4802742 C11.8226835,20.6519316 11.4567988,20.7317217 11.0909142,20.7317217 L11.0912328,20.7317217 Z" id="形状"  fill-rule="nonzero"></path>
                        </g>
                    </g>
                </g>
            </g>
        </g>
    </g>
</svg>